<svg xmlns="http://www.w3.org/2000/svg" width="74" height="13" viewBox="0 0 74 13">
    <g fill="none" fill-rule="evenodd">
        <path fill="#A4C929" d="M4.852 4.374c.055-.412.012-.725-.13-.93-.143-.206-.38-.31-.71-.31h-.11l-.322 2.48c.39-.009.686-.11.887-.31.204-.2.334-.506.385-.93zm2.28 1.364c-.34.426-.813.771-1.417 1.028l1.417 4.606h-3.01L3.359 7.35l-.52 4.022H0L1.342.977h3.265c1.106 0 1.938.287 2.502.862.56.574.778 1.355.652 2.342-.08.606-.29 1.127-.629 1.557zm4.472 1.07c.053-.41.028-.722-.072-.93-.1-.206-.281-.308-.534-.308-.2 0-.375.102-.527.304-.148.201-.28.512-.394.934h1.527zm1.734-2.024c.452.604.598 1.51.443 2.723-.02.142-.032.251-.046.327a1.547 1.547 0 0 1-.044.2H9.919l-.013.1c-.07.536-.06.92.028 1.154.09.233.268.352.537.352.2 0 .368-.07.51-.203.142-.133.258-.338.347-.616h2.17c-.21.857-.62 1.528-1.23 2.02-.608.49-1.344.735-2.194.735-1.005 0-1.736-.33-2.193-.99-.46-.664-.609-1.606-.451-2.828.16-1.23.555-2.184 1.192-2.86.633-.68 1.446-1.018 2.43-1.018 1.072 0 1.832.301 2.286.904zm4.55 6.473c-.198.109-.412.189-.634.24a3.243 3.243 0 0 1-.746.079c-.92 0-1.598-.34-2.042-1.027-.44-.685-.585-1.625-.432-2.821.153-1.17.547-2.106 1.182-2.805.635-.7 1.409-1.043 2.313-1.043.25 0 .483.025.69.069.21.052.407.12.585.222l-.289 2.228a.917.917 0 0 0-.551-.158c-.268 0-.503.132-.695.397-.193.265-.32.629-.38 1.09-.06.462-.03.813.088 1.046.116.236.323.356.616.356.082 0 .174-.014.273-.041.098-.025.203-.06.315-.107l-.292 2.275zm.622.115L19.975.03h2.58l-1.462 11.342H18.51zm7.714-3.644c.067-.513.064-.904-.012-1.17-.074-.271-.217-.405-.425-.405-.205 0-.379.134-.519.399-.14.266-.247.658-.312 1.176-.067.519-.066.907.005 1.169.07.26.211.391.419.391.213 0 .388-.133.531-.402.146-.27.25-.655.313-1.158zm.528-3.646h2.581l-.94 7.29h-2.58l.103-.802c-.301.35-.597.603-.892.766-.291.16-.6.24-.919.24-.709 0-1.221-.336-1.535-1.012-.315-.674-.394-1.62-.24-2.836.16-1.225.481-2.171.964-2.84.483-.674 1.085-1.008 1.805-1.008.325 0 .61.079.863.238.247.159.479.41.688.755l.102-.791zm2.41 7.29l.941-7.29h2.48l-.138 1.082c.295-.417.62-.726.972-.93a2.386 2.386 0 0 1 1.185-.296c.408 0 .732.1.975.304.24.201.394.509.462.922.254-.417.55-.726.886-.93a2.257 2.257 0 0 1 1.164-.296c.545 0 .937.164 1.181.497.243.332.324.82.241 1.456l-.706 5.48H36.22l.548-4.243c.031-.226.01-.396-.053-.505-.064-.11-.18-.162-.34-.162A.454.454 0 0 0 36 6.65c-.098.125-.164.3-.194.521l-.541 4.202h-2.567l.546-4.244c.031-.226.013-.396-.05-.505-.066-.11-.182-.162-.343-.162a.475.475 0 0 0-.387.188c-.1.125-.166.3-.194.521l-.54 4.202h-2.569zm14.764-4.564c.053-.41.029-.722-.074-.93-.1-.206-.276-.308-.531-.308-.2 0-.375.102-.525.304-.15.201-.283.512-.398.934h1.528zm1.736-2.024c.45.604.598 1.51.442 2.723-.018.142-.032.251-.044.327-.01.071-.029.138-.046.2h-3.772l-.013.1c-.07.536-.06.92.028 1.154.09.233.268.352.54.352.2 0 .365-.07.506-.203.14-.133.259-.338.348-.616h2.172c-.211.857-.624 1.528-1.233 2.02-.609.49-1.34.735-2.195.735-1.004 0-1.735-.33-2.192-.99-.46-.664-.608-1.606-.45-2.828.16-1.23.554-2.184 1.193-2.86.63-.68 1.444-1.018 2.43-1.018 1.07 0 1.832.301 2.286.904z"/>
        <path fill="#02793E" d="M49.913 7.744h1.128l-.074-3.853-1.054 3.853zm3.03-6.767l.884 10.395H51.06l-.019-1.529h-1.677l-.415 1.529H46.18L49.746.977h3.197zm6.2 5.136c.14-1.092.169-1.832.079-2.227-.087-.394-.298-.59-.646-.59-.347 0-.616.197-.808.598-.19.398-.353 1.137-.494 2.22-.14 1.076-.166 1.814-.077 2.211.09.398.305.599.655.599.344 0 .61-.196.797-.589.188-.39.354-1.131.495-2.222zm2.376-3.927c.544.941.704 2.274.482 3.997-.13.992-.353 1.854-.67 2.582a5.635 5.635 0 0 1-1.257 1.85l1.083 1.324-2.415 1.111-.904-1.489c-.031 0-.08.004-.149.01a2.966 2.966 0 0 1-.15.005c-1.222 0-2.107-.469-2.65-1.41-.55-.936-.714-2.265-.493-3.983.223-1.718.727-3.05 1.518-3.992.787-.945 1.785-1.418 2.99-1.418 1.207 0 2.077.473 2.615 1.413zm.844 5.469l.863-6.678h2.84l-.898 6.954c-.04.306-.016.53.073.674.088.143.241.216.464.216.225 0 .404-.073.528-.216.127-.145.206-.368.246-.674l.897-6.954h2.852l-.861 6.678c-.173 1.355-.585 2.35-1.23 2.978-.647.631-1.572.943-2.788.943-1.207 0-2.05-.312-2.529-.943-.477-.628-.63-1.623-.457-2.978zm7.483 3.717L71.183.977h2.84l-1.34 10.395h-2.837z"/>
    </g>
</svg>
