<?xml version="1.0" encoding="utf-8"?>
<!-- Generator: Adobe Illustrator 23.0.4, SVG Export Plug-In . SVG Version: 6.00 Build 0)  -->
<svg version="1.1" id="Camada_1" xmlns="http://www.w3.org/2000/svg" xmlns:xlink="http://www.w3.org/1999/xlink" x="0px" y="0px"
	 viewBox="0 0 40 40" style="enable-background:new 0 0 40 40;" xml:space="preserve">
<style type="text/css">
	.st0{fill:#ADC73E;}
	.st1{fill:#FFFFFF;}
	.st2{opacity:0.5;fill:url(#SVGID_1_);enable-background:new    ;}
</style>
<title>Brand / Reclame Aqui / Stamp / Verificada</title>
<desc>Created with Sketch.</desc>
<circle id="Oval" class="st0" cx="20" cy="20" r="20"/>
<path class="st1" d="M30.3,17.4L20,27.8c-1.4,1.4-3.8,1.4-5.2,0l-2.6-2.6l12.9-12.9c1.4-1.4,3.8-1.4,5.2,0
	C31.8,13.7,31.8,16,30.3,17.4z"/>
<linearGradient id="SVGID_1_" gradientUnits="userSpaceOnUse" x1="-597.2539" y1="366.9364" x2="-596.3523" y2="368.8657" gradientTransform="matrix(10.1667 0 0 -10.1667 6085.751 3769.4998)">
	<stop  offset="0" style="stop-color:#000000"/>
	<stop  offset="1" style="stop-color:#000000;stop-opacity:0"/>
</linearGradient>
<polygon class="st2" points="22.6,25.2 27.6,20.2 22.4,15 17.4,20 "/>
<path class="st1" d="M25.2,22.6L20,27.8c-1.4,1.4-3.8,1.4-5.2,0l-5.2-5.2c-1.4-1.4-1.4-3.8,0-5.2c0.8-0.8,1.7-1.1,2.6-1.1
	s1.8,0.3,2.6,1.1l0,0l2.6,2.6l2.6,2.6C21.4,24,23.8,24,25.2,22.6z"/>
</svg>
